#!OML:ASF F:\VICON\USERDATA\INSTALL\rory3\rory3.ASF
:FULLY-SPECIFIED
:DEGREES
478
root 4.92534 16.3965 2.23007 6.0801 -11.8085 -7.59645
lowerback 20.6514 -0.98346 4.42604
upperback 4.76819 -0.259571 1.83057
thorax -6.3634 -0.199466 -0.480117
lowerneck -15.0324 -0.469563 -1.58109
upperneck 36.126 0.312394 -1.82375
head 15.1233 -0.400145 -0.448379
rclavicle 4.49253e-014 -1.19271e-014
rhumerus -40.1368 3.04509 -9.89104
rradius 27.1086
rwrist 10.2359
rhand -22.6442 -48.3601
rfingers 7.12502
rthumb 3.78674 -78.3062
lclavicle 4.49253e-014 -1.19271e-014
lhumerus -37.1624 -1.89861 4.69275
lradius 23.2789
lwrist 10.0797
lhand -21.9432 -27.2321
lfingers 7.12502
lthumb 4.46359 2.70083
rfemur -106.438 1.29647 27.6412
rtibia 102.997
rfoot 50.4696 4.62909
rtoes -1.47501
lfemur -31.8103 0.919163 -22.5554
ltibia 52.7869
lfoot -23.6264 10.501
ltoes 15.6007
479
root 4.92671 16.4002 2.22752 6.0767 -11.7739 -7.72242
lowerback 20.7611 -0.992579 4.58056
upperback 4.72662 -0.225909 1.88804
thorax -6.46467 -0.187288 -0.51289
lowerneck -15.0248 -0.48572 -1.58059
upperneck 36.1602 0.301954 -1.85916
head 15.1383 -0.409442 -0.465432
rclavicle 2.87244e-014 -1.31198e-014
rhumerus -40.1148 3.0225 -9.69949
rradius 27.1915
rwrist 10.2954
rhand -22.0394 -48.6544
rfingers 7.12502
rthumb 4.37069 -78.5893
lclavicle 2.87244e-014 -1.31198e-014
lhumerus -37.1434 -2.02639 4.48437
lradius 23.2351
lwrist 10.4736
lhand -21.9497 -27.8287
lfingers 7.12502
lthumb 4.45737 2.10439
rfemur -106.4 1.24943 27.7436
rtibia 103.034
rfoot 50.5845 4.02834
rtoes -1.40491
lfemur -31.7676 0.926589 -22.4164
ltibia 52.7641
lfoot -23.602 10.4604
ltoes 14.2866
480
root 4.92652 16.4 2.22855 6.07648 -11.7045 -7.7923
lowerback 20.8364 -1.02159 4.6825
upperback 4.69341 -0.23221 1.93179
thorax -6.5405 -0.193231 -0.520723
lowerneck -15.0877 -0.507643 -1.64307
upperneck 36.2135 0.279504 -1.82547
head 15.1789 -0.423489 -0.44499
rclavicle -3.78685e-014 6.26172e-014
rhumerus -40.0528 3.14584 -9.59761
rradius 27.2636
rwrist 10.2421
rhand -21.3782 -49.0362
rfingers 7.12502
rthumb 5.00921 -78.957
lclavicle -3.78685e-014 6.26172e-014
lhumerus -37.1746 -2.00625 4.22379
lradius 23.2504
lwrist 10.5354
lhand -22.3351 -28.6377
lfingers 7.12502
lthumb 4.08518 1.30289
rfemur -106.378 1.15708 27.8123
rtibia 103.091
rfoot 50.5618 4.14915
rtoes -1.71332
lfemur -31.7398 0.872722 -22.3331
ltibia 52.7499
lfoot -23.5743 10.4351
ltoes 14.0219
481
root 4.92716 16.3997 2.23256 6.05243 -11.6695 -7.8163
lowerback 20.8571 -1.03463 4.75257
upperback 4.68591 -0.230641 1.95661
thorax -6.55939 -0.193811 -0.533757
lowerneck -15.088 -0.546363 -1.73973
upperneck 36.2082 0.230374 -1.76467
head 15.1763 -0.448703 -0.410515
rclavicle -1.69961e-014 -1.2921e-014
rhumerus -39.9854 3.12045 -9.41644
rradius 27.1457
rwrist 10.4415
rhand -21.3717 -49.1321
rfingers 7.12502
rthumb 5.01547 -79.0528
lclavicle -1.69961e-014 -1.2921e-014
lhumerus -37.1649 -1.97509 3.99112
lradius 23.27
lwrist 10.4758
lhand -22.7744 -29.4281
lfingers 7.12502
lthumb 3.661 0.520209
rfemur -106.342 1.06851 27.8287
rtibia 103.163
rfoot 50.5523 4.44573
rtoes -1.64736
lfemur -31.6726 0.834327 -22.3122
ltibia 52.7376
lfoot -23.5934 10.4901
ltoes 15.0562
482
root 4.92932 16.4026 2.23727 5.99654 -11.6882 -7.81301
lowerback 20.8358 -1.03994 4.78737
upperback 4.73205 -0.232945 1.97201
thorax -6.49795 -0.193965 -0.536963
lowerneck -15.2775 -0.549691 -1.73223
upperneck 36.3378 0.260197 -1.84276
head 15.2847 -0.448047 -0.442302
rclavicle 7.95139e-016 -2.24627e-014
rhumerus -39.8437 2.9921 -9.22477
rradius 26.9537
rwrist 10.7836
rhand -22.11 -48.9829
rfingers 7.12502
rthumb 4.30257 -78.9192
lclavicle 7.95139e-016 -2.24627e-014
lhumerus -37.1487 -1.98117 3.80951
lradius 23.1814
lwrist 10.5299
lhand -22.8101 -29.4344
lfingers 7.12502
lthumb 3.62646 0.51451
rfemur -106.275 0.989277 27.8171
rtibia 103.276
rfoot 50.4498 4.4764
rtoes -2.12659
lfemur -31.5618 0.844575 -22.3321
ltibia 52.7228
lfoot -23.6854 10.5367
ltoes 15.3945
483
root 4.92906 16.4018 2.23646 6.00812 -11.6988 -7.83276
lowerback 20.8112 -1.04617 4.79608
upperback 4.74598 -0.239356 2.0027
thorax -6.47003 -0.196511 -0.507498
lowerneck -15.3733 -0.543573 -1.75151
upperneck 36.4178 0.299827 -1.89648
head 15.3471 -0.442926 -0.456392
rclavicle 6.26172e-015 -9.34288e-015
rhumerus -39.7125 3.01587 -9.11729
rradius 26.9157
rwrist 10.6685
rhand -22.5224 -48.8253
rfingers 7.12502
rthumb 3.90432 -78.7693
lclavicle 6.26172e-015 -9.34288e-015
lhumerus -37.191 -1.90755 3.56589
lradius 23.1641
lwrist 10.4128
lhand -22.615 -28.8341
lfingers 7.12502
lthumb 3.81491 1.11149
rfemur -106.308 0.953223 27.8312
rtibia 103.398
rfoot 50.3996 4.37576
rtoes -2.29374
lfemur -31.5853 0.884356 -22.3134
ltibia 52.7348
lfoot -23.7004 10.5376
ltoes 15.2287
484
root 4.92807 16.3948 2.23585 6.03937 -11.741 -7.81748
lowerback 20.7655 -1.03029 4.78121
upperback 4.72803 -0.223565 2.00841
thorax -6.46485 -0.18872 -0.4973
lowerneck -15.2032 -0.522953 -1.78218
upperneck 36.3683 0.322964 -1.86792
head 15.2826 -0.432379 -0.433392
rclavicle 1.98785e-015 1.86858e-014
rhumerus -39.7152 3.10114 -9.03268
rradius 27.0042
rwrist 10.5351
rhand -22.354 -48.681
rfingers 7.12502
rthumb 4.06689 -78.6219
lclavicle 1.98785e-015 1.86858e-014
lhumerus -37.1787 -1.76638 3.2543
lradius 23.1659
lwrist 10.1248
lhand -22.5448 -28.9151
lfingers 7.12502
lthumb 3.88273 1.02926
rfemur -106.416 0.959228 27.7935
rtibia 103.496
rfoot 50.5422 4.20813
rtoes -1.57628
lfemur -31.664 0.967143 -22.3371
ltibia 52.7657
lfoot -23.6499 10.6958
ltoes 14.4112
485
root 4.92919 16.3919 2.23865 5.98987 -11.7527 -7.81049
lowerback 20.7563 -1.02609 4.82344
upperback 4.74152 -0.211034 2.00194
thorax -6.4448 -0.182838 -0.53171
lowerneck -15.1129 -0.495103 -1.74661
upperneck 36.4119 0.331186 -1.81841
head 15.2819 -0.41744 -0.417526
rclavicle -6.75868e-015 3.75703e-014
rhumerus -39.7872 3.19801 -8.99556
rradius 27.2261
rwrist 10.5114
rhand -22.2227 -48.6562
rfingers 7.12502
rthumb 4.19372 -78.5946
lclavicle -6.75868e-015 3.75703e-014
lhumerus -37.1037 -1.82284 3.08394
lradius 23.1691
lwrist 10.1747
lhand -22.5216 -29.2708
lfingers 7.12502
lthumb 3.90508 0.673134
rfemur -106.382 0.905134 27.752
rtibia 103.554
rfoot 50.5717 4.22485
rtoes -1.54733
lfemur -31.6172 1.04961 -22.358
ltibia 52.7896
lfoot -23.6739 10.7736
ltoes 13.3584
486
root 4.93041 16.3964 2.23747 5.93271 -11.7184 -7.88872
lowerback 20.8053 -1.05391 4.93065
upperback 4.77293 -0.220957 2.03032
thorax -6.4366 -0.188714 -0.559074
lowerneck -15.2483 -0.499269 -1.73998
upperneck 36.6126 0.321282 -1.79862
head 15.412 -0.421054 -0.415339
rclavicle 1.0635e-014 1.80894e-014
rhumerus -39.7168 3.26636 -8.9864
rradius 27.3287
rwrist 10.3472
rhand -22.3862 -48.8489
rfingers 7.12502
rthumb 4.03583 -78.7904
lclavicle 1.0635e-014 1.80894e-014
lhumerus -37.0913 -1.75512 2.90619
lradius 23.1883
lwrist 10.0704
lhand -22.3765 -29.2181
lfingers 7.12502
lthumb 4.04524 0.723264
rfemur -106.247 0.845132 27.8027
rtibia 103.563
rfoot 50.4089 4.75353
rtoes -2.39474
lfemur -31.5448 1.16017 -22.2712
ltibia 52.7988
lfoot -23.735 10.6141
ltoes 13.5446
487
root 4.93132 16.3995 2.23626 5.89353 -11.745 -7.93856
lowerback 20.8165 -1.05305 4.9985
upperback 4.81294 -0.206152 2.04354
thorax -6.39812 -0.181513 -0.587372
lowerneck -15.3171 -0.526042 -1.7777
upperneck 36.7037 0.288478 -1.77708
head 15.4731 -0.438372 -0.406689
rclavicle -3.37934e-014 -2.76311e-014
rhumerus -39.6242 3.23738 -8.95409
rradius 27.288
rwrist 10.1608
rhand -22.5384 -49.1455
rfingers 7.12502
rthumb 3.88887 -79.0897
lclavicle -3.37934e-014 -2.76311e-014
lhumerus -37.0929 -1.6602 2.75163
lradius 23.237
lwrist 9.84361
lhand -22.5759 -29.0996
lfingers 7.12502
lthumb 3.85264 0.845299
rfemur -106.179 0.830761 27.8407
rtibia 103.589
rfoot 50.3092 5.43735
rtoes -3.35224
lfemur -31.5141 1.32561 -22.2129
ltibia 52.7759
lfoot -23.7258 10.5867
ltoes 13.4299
488
root 4.93113 16.3979 2.23722 5.87696 -11.8081 -7.93265
lowerback 20.7581 -1.01217 5.00603
upperback 4.88619 -0.160832 2.02757
thorax -6.28562 -0.157068 -0.621891
lowerneck -15.3461 -0.557856 -1.79202
upperneck 36.6402 0.228078 -1.72767
head 15.4484 -0.457573 -0.392785
rclavicle -2.61402e-014 -3.45885e-014
rhumerus -39.6241 3.12869 -8.91425
rradius 27.37
rwrist 10.0051
rhand -22.2908 -49.2983
rfingers 7.12502
rthumb 4.12792 -79.2381
lclavicle -2.61402e-014 -3.45885e-014
lhumerus -36.9656 -1.79895 2.76704
lradius 23.2977
lwrist 10.1214
lhand -22.827 -28.9356
lfingers 7.12502
lthumb 3.61014 1.01355
rfemur -106.185 0.832074 27.831
rtibia 103.617
rfoot 50.2914 5.72865
rtoes -4.01037
lfemur -31.5184 1.53239 -22.2257
ltibia 52.7493
lfoot -23.7047 10.5635
ltoes 12.8456
